<mxfile host="app.diagrams.net" agent="Mozilla/5.0 (X11; Ubuntu; Linux x86_64; rv:141.0) Gecko/20100101 Firefox/141.0" version="28.1.0">
  <diagram name="Página-1" id="5lLuKisAeP8wM90z_p6F">
    <mxGraphModel dx="2585" dy="1067" grid="1" gridSize="10" guides="1" tooltips="1" connect="1" arrows="1" fold="1" page="1" pageScale="1" pageWidth="850" pageHeight="1100" math="0" shadow="0">
      <root>
        <mxCell id="0" />
        <mxCell id="1" parent="0" />
        <mxCell id="jdnI40FFC8v3BeZOwwgh-1" value="Departamento" style="rounded=1;arcSize=10;whiteSpace=wrap;html=1;align=center;" vertex="1" parent="1">
          <mxGeometry x="185" y="370" width="100" height="40" as="geometry" />
        </mxCell>
        <mxCell id="jdnI40FFC8v3BeZOwwgh-2" value="Nome" style="ellipse;whiteSpace=wrap;html=1;align=center;" vertex="1" parent="1">
          <mxGeometry x="185" y="285" width="100" height="40" as="geometry" />
        </mxCell>
        <mxCell id="jdnI40FFC8v3BeZOwwgh-3" value="" style="endArrow=none;html=1;rounded=0;exitX=0.5;exitY=1;exitDx=0;exitDy=0;entryX=0.5;entryY=0;entryDx=0;entryDy=0;" edge="1" parent="1" source="jdnI40FFC8v3BeZOwwgh-2" target="jdnI40FFC8v3BeZOwwgh-1">
          <mxGeometry relative="1" as="geometry">
            <mxPoint x="155" y="495" as="sourcePoint" />
            <mxPoint x="315" y="495" as="targetPoint" />
          </mxGeometry>
        </mxCell>
        <mxCell id="jdnI40FFC8v3BeZOwwgh-4" value="&lt;u&gt;Identificador&lt;/u&gt;" style="ellipse;whiteSpace=wrap;html=1;align=center;" vertex="1" parent="1">
          <mxGeometry x="305" y="305" width="100" height="40" as="geometry" />
        </mxCell>
        <mxCell id="jdnI40FFC8v3BeZOwwgh-6" value="" style="endArrow=none;html=1;rounded=0;exitX=0.75;exitY=0;exitDx=0;exitDy=0;entryX=0;entryY=1;entryDx=0;entryDy=0;" edge="1" parent="1" source="jdnI40FFC8v3BeZOwwgh-1" target="jdnI40FFC8v3BeZOwwgh-4">
          <mxGeometry relative="1" as="geometry">
            <mxPoint x="235" y="465" as="sourcePoint" />
            <mxPoint x="395" y="465" as="targetPoint" />
          </mxGeometry>
        </mxCell>
        <mxCell id="jdnI40FFC8v3BeZOwwgh-7" value="Gerenciado" style="shape=rhombus;perimeter=rhombusPerimeter;whiteSpace=wrap;html=1;align=center;" vertex="1" parent="1">
          <mxGeometry x="-5" y="295" width="120" height="60" as="geometry" />
        </mxCell>
        <mxCell id="jdnI40FFC8v3BeZOwwgh-13" value="&lt;div&gt;Data de Início&lt;/div&gt;&lt;div&gt;de Gerência&lt;/div&gt;" style="ellipse;whiteSpace=wrap;html=1;align=center;" vertex="1" parent="1">
          <mxGeometry x="5" y="210" width="100" height="40" as="geometry" />
        </mxCell>
        <mxCell id="jdnI40FFC8v3BeZOwwgh-14" value="" style="endArrow=none;html=1;rounded=0;exitX=0.5;exitY=0;exitDx=0;exitDy=0;entryX=0.5;entryY=1;entryDx=0;entryDy=0;" edge="1" parent="1" source="jdnI40FFC8v3BeZOwwgh-7" target="jdnI40FFC8v3BeZOwwgh-13">
          <mxGeometry relative="1" as="geometry">
            <mxPoint x="-65" y="445" as="sourcePoint" />
            <mxPoint x="95" y="445" as="targetPoint" />
          </mxGeometry>
        </mxCell>
        <mxCell id="jdnI40FFC8v3BeZOwwgh-15" value="Empregado" style="whiteSpace=wrap;html=1;align=center;" vertex="1" parent="1">
          <mxGeometry x="-185" y="375" width="100" height="40" as="geometry" />
        </mxCell>
        <mxCell id="jdnI40FFC8v3BeZOwwgh-25" value="" style="endArrow=none;html=1;rounded=0;exitX=1;exitY=0.25;exitDx=0;exitDy=0;entryX=0;entryY=1;entryDx=0;entryDy=0;" edge="1" parent="1" source="jdnI40FFC8v3BeZOwwgh-15" target="jdnI40FFC8v3BeZOwwgh-7">
          <mxGeometry relative="1" as="geometry">
            <mxPoint x="-45" y="485" as="sourcePoint" />
            <mxPoint x="-45" y="395" as="targetPoint" />
          </mxGeometry>
        </mxCell>
        <mxCell id="jdnI40FFC8v3BeZOwwgh-37" value="1..1" style="edgeLabel;html=1;align=center;verticalAlign=middle;resizable=0;points=[];" vertex="1" connectable="0" parent="jdnI40FFC8v3BeZOwwgh-25">
          <mxGeometry x="-0.1097" y="1" relative="1" as="geometry">
            <mxPoint as="offset" />
          </mxGeometry>
        </mxCell>
        <mxCell id="jdnI40FFC8v3BeZOwwgh-26" value="Nome" style="ellipse;whiteSpace=wrap;html=1;align=center;" vertex="1" parent="1">
          <mxGeometry x="-310" y="265" width="100" height="40" as="geometry" />
        </mxCell>
        <mxCell id="jdnI40FFC8v3BeZOwwgh-27" value="&lt;div&gt;Número Seguro&lt;/div&gt;&lt;div&gt;Social&lt;/div&gt;" style="ellipse;whiteSpace=wrap;html=1;align=center;" vertex="1" parent="1">
          <mxGeometry x="-350" y="315" width="100" height="40" as="geometry" />
        </mxCell>
        <mxCell id="jdnI40FFC8v3BeZOwwgh-29" value="" style="endArrow=none;html=1;rounded=0;exitX=1;exitY=1;exitDx=0;exitDy=0;entryX=0.25;entryY=0;entryDx=0;entryDy=0;" edge="1" parent="1" source="jdnI40FFC8v3BeZOwwgh-26" target="jdnI40FFC8v3BeZOwwgh-15">
          <mxGeometry relative="1" as="geometry">
            <mxPoint x="-295" y="445" as="sourcePoint" />
            <mxPoint x="-135" y="445" as="targetPoint" />
          </mxGeometry>
        </mxCell>
        <mxCell id="jdnI40FFC8v3BeZOwwgh-30" value="" style="endArrow=none;html=1;rounded=0;exitX=1;exitY=0.5;exitDx=0;exitDy=0;entryX=0;entryY=0.25;entryDx=0;entryDy=0;" edge="1" parent="1" source="jdnI40FFC8v3BeZOwwgh-27" target="jdnI40FFC8v3BeZOwwgh-15">
          <mxGeometry relative="1" as="geometry">
            <mxPoint x="-95" y="605" as="sourcePoint" />
            <mxPoint x="65" y="605" as="targetPoint" />
          </mxGeometry>
        </mxCell>
        <mxCell id="jdnI40FFC8v3BeZOwwgh-31" value="Salário" style="ellipse;whiteSpace=wrap;html=1;align=center;" vertex="1" parent="1">
          <mxGeometry x="-350" y="375" width="100" height="40" as="geometry" />
        </mxCell>
        <mxCell id="jdnI40FFC8v3BeZOwwgh-32" value="" style="endArrow=none;html=1;rounded=0;exitX=1;exitY=0.5;exitDx=0;exitDy=0;entryX=0;entryY=0.75;entryDx=0;entryDy=0;" edge="1" parent="1" source="jdnI40FFC8v3BeZOwwgh-31" target="jdnI40FFC8v3BeZOwwgh-15">
          <mxGeometry relative="1" as="geometry">
            <mxPoint x="5" y="585" as="sourcePoint" />
            <mxPoint x="165" y="585" as="targetPoint" />
          </mxGeometry>
        </mxCell>
        <mxCell id="jdnI40FFC8v3BeZOwwgh-33" value="Gênero" style="ellipse;whiteSpace=wrap;html=1;align=center;" vertex="1" parent="1">
          <mxGeometry x="-200" y="265" width="100" height="40" as="geometry" />
        </mxCell>
        <mxCell id="jdnI40FFC8v3BeZOwwgh-34" value="&lt;div&gt;Data de&lt;/div&gt;&lt;div&gt;Nascimento&lt;/div&gt;" style="ellipse;whiteSpace=wrap;html=1;align=center;" vertex="1" parent="1">
          <mxGeometry x="-110" y="300" width="100" height="40" as="geometry" />
        </mxCell>
        <mxCell id="jdnI40FFC8v3BeZOwwgh-35" value="" style="endArrow=none;html=1;rounded=0;exitX=0.5;exitY=1;exitDx=0;exitDy=0;entryX=0.5;entryY=0;entryDx=0;entryDy=0;" edge="1" parent="1" source="jdnI40FFC8v3BeZOwwgh-33" target="jdnI40FFC8v3BeZOwwgh-15">
          <mxGeometry relative="1" as="geometry">
            <mxPoint x="-135" y="615" as="sourcePoint" />
            <mxPoint x="25" y="615" as="targetPoint" />
          </mxGeometry>
        </mxCell>
        <mxCell id="jdnI40FFC8v3BeZOwwgh-36" value="" style="endArrow=none;html=1;rounded=0;exitX=0.5;exitY=1;exitDx=0;exitDy=0;entryX=0.75;entryY=0;entryDx=0;entryDy=0;" edge="1" parent="1" source="jdnI40FFC8v3BeZOwwgh-34" target="jdnI40FFC8v3BeZOwwgh-15">
          <mxGeometry relative="1" as="geometry">
            <mxPoint x="-85" y="605" as="sourcePoint" />
            <mxPoint x="75" y="605" as="targetPoint" />
          </mxGeometry>
        </mxCell>
        <mxCell id="jdnI40FFC8v3BeZOwwgh-38" value="" style="endArrow=none;html=1;rounded=0;exitX=1;exitY=1;exitDx=0;exitDy=0;entryX=0;entryY=0.25;entryDx=0;entryDy=0;" edge="1" parent="1" source="jdnI40FFC8v3BeZOwwgh-7" target="jdnI40FFC8v3BeZOwwgh-1">
          <mxGeometry relative="1" as="geometry">
            <mxPoint x="35" y="425" as="sourcePoint" />
            <mxPoint x="195" y="425" as="targetPoint" />
          </mxGeometry>
        </mxCell>
        <mxCell id="jdnI40FFC8v3BeZOwwgh-39" value="0..N" style="edgeLabel;html=1;align=center;verticalAlign=middle;resizable=0;points=[];" vertex="1" connectable="0" parent="jdnI40FFC8v3BeZOwwgh-38">
          <mxGeometry x="-0.1556" y="3" relative="1" as="geometry">
            <mxPoint as="offset" />
          </mxGeometry>
        </mxCell>
        <mxCell id="jdnI40FFC8v3BeZOwwgh-40" value="Possui" style="shape=rhombus;perimeter=rhombusPerimeter;whiteSpace=wrap;html=1;align=center;" vertex="1" parent="1">
          <mxGeometry x="-5" y="425" width="120" height="60" as="geometry" />
        </mxCell>
        <mxCell id="jdnI40FFC8v3BeZOwwgh-42" value="" style="endArrow=none;html=1;rounded=0;exitX=1;exitY=0.75;exitDx=0;exitDy=0;entryX=0;entryY=0;entryDx=0;entryDy=0;" edge="1" parent="1" source="jdnI40FFC8v3BeZOwwgh-15" target="jdnI40FFC8v3BeZOwwgh-40">
          <mxGeometry relative="1" as="geometry">
            <mxPoint x="-155" y="545" as="sourcePoint" />
            <mxPoint x="5" y="545" as="targetPoint" />
          </mxGeometry>
        </mxCell>
        <mxCell id="jdnI40FFC8v3BeZOwwgh-44" value="0..N" style="edgeLabel;html=1;align=center;verticalAlign=middle;resizable=0;points=[];" vertex="1" connectable="0" parent="jdnI40FFC8v3BeZOwwgh-42">
          <mxGeometry x="0.0016" y="3" relative="1" as="geometry">
            <mxPoint as="offset" />
          </mxGeometry>
        </mxCell>
        <mxCell id="jdnI40FFC8v3BeZOwwgh-43" value="1..1" style="endArrow=none;html=1;rounded=0;exitX=1;exitY=0;exitDx=0;exitDy=0;entryX=0;entryY=0.75;entryDx=0;entryDy=0;" edge="1" parent="1" source="jdnI40FFC8v3BeZOwwgh-40" target="jdnI40FFC8v3BeZOwwgh-1">
          <mxGeometry relative="1" as="geometry">
            <mxPoint x="135" y="535" as="sourcePoint" />
            <mxPoint x="295" y="535" as="targetPoint" />
          </mxGeometry>
        </mxCell>
        <mxCell id="jdnI40FFC8v3BeZOwwgh-45" value="Projeto" style="whiteSpace=wrap;html=1;align=center;" vertex="1" parent="1">
          <mxGeometry x="5" y="580" width="100" height="40" as="geometry" />
        </mxCell>
        <mxCell id="jdnI40FFC8v3BeZOwwgh-46" value="Contém" style="shape=rhombus;perimeter=rhombusPerimeter;whiteSpace=wrap;html=1;align=center;" vertex="1" parent="1">
          <mxGeometry x="175" y="505" width="120" height="60" as="geometry" />
        </mxCell>
        <mxCell id="jdnI40FFC8v3BeZOwwgh-48" value="" style="endArrow=none;html=1;rounded=0;entryX=0.5;entryY=0;entryDx=0;entryDy=0;exitX=0.5;exitY=1;exitDx=0;exitDy=0;" edge="1" parent="1" source="jdnI40FFC8v3BeZOwwgh-1" target="jdnI40FFC8v3BeZOwwgh-46">
          <mxGeometry relative="1" as="geometry">
            <mxPoint x="-60" y="570" as="sourcePoint" />
            <mxPoint x="100" y="570" as="targetPoint" />
          </mxGeometry>
        </mxCell>
        <mxCell id="jdnI40FFC8v3BeZOwwgh-49" value="1..1" style="edgeLabel;html=1;align=center;verticalAlign=middle;resizable=0;points=[];" vertex="1" connectable="0" parent="jdnI40FFC8v3BeZOwwgh-48">
          <mxGeometry x="-0.2792" y="-1" relative="1" as="geometry">
            <mxPoint as="offset" />
          </mxGeometry>
        </mxCell>
        <mxCell id="jdnI40FFC8v3BeZOwwgh-51" value="Trabalha" style="shape=rhombus;perimeter=rhombusPerimeter;whiteSpace=wrap;html=1;align=center;" vertex="1" parent="1">
          <mxGeometry x="-130" y="485" width="120" height="60" as="geometry" />
        </mxCell>
        <mxCell id="jdnI40FFC8v3BeZOwwgh-52" value="" style="endArrow=none;html=1;rounded=0;exitX=1;exitY=1;exitDx=0;exitDy=0;entryX=0;entryY=0.5;entryDx=0;entryDy=0;" edge="1" parent="1" source="jdnI40FFC8v3BeZOwwgh-51" target="jdnI40FFC8v3BeZOwwgh-45">
          <mxGeometry relative="1" as="geometry">
            <mxPoint x="-100" y="620" as="sourcePoint" />
            <mxPoint x="60" y="620" as="targetPoint" />
          </mxGeometry>
        </mxCell>
        <mxCell id="jdnI40FFC8v3BeZOwwgh-57" value="0..N" style="edgeLabel;html=1;align=center;verticalAlign=middle;resizable=0;points=[];" vertex="1" connectable="0" parent="jdnI40FFC8v3BeZOwwgh-52">
          <mxGeometry x="-0.114" y="-1" relative="1" as="geometry">
            <mxPoint as="offset" />
          </mxGeometry>
        </mxCell>
        <mxCell id="jdnI40FFC8v3BeZOwwgh-53" value="" style="endArrow=none;html=1;rounded=0;exitX=0.5;exitY=0;exitDx=0;exitDy=0;entryX=0.5;entryY=1;entryDx=0;entryDy=0;" edge="1" parent="1" source="jdnI40FFC8v3BeZOwwgh-51" target="jdnI40FFC8v3BeZOwwgh-15">
          <mxGeometry relative="1" as="geometry">
            <mxPoint x="-250" y="610" as="sourcePoint" />
            <mxPoint x="-130" y="420" as="targetPoint" />
          </mxGeometry>
        </mxCell>
        <mxCell id="jdnI40FFC8v3BeZOwwgh-56" value="0..N" style="edgeLabel;html=1;align=center;verticalAlign=middle;resizable=0;points=[];" vertex="1" connectable="0" parent="jdnI40FFC8v3BeZOwwgh-53">
          <mxGeometry x="-0.0982" y="-2" relative="1" as="geometry">
            <mxPoint as="offset" />
          </mxGeometry>
        </mxCell>
        <mxCell id="jdnI40FFC8v3BeZOwwgh-54" value="" style="endArrow=none;html=1;rounded=0;exitX=1;exitY=0.5;exitDx=0;exitDy=0;entryX=0;entryY=1;entryDx=0;entryDy=0;" edge="1" parent="1" source="jdnI40FFC8v3BeZOwwgh-45" target="jdnI40FFC8v3BeZOwwgh-46">
          <mxGeometry relative="1" as="geometry">
            <mxPoint x="160" y="640" as="sourcePoint" />
            <mxPoint x="320" y="640" as="targetPoint" />
          </mxGeometry>
        </mxCell>
        <mxCell id="jdnI40FFC8v3BeZOwwgh-55" value="0..N" style="edgeLabel;html=1;align=center;verticalAlign=middle;resizable=0;points=[];" vertex="1" connectable="0" parent="jdnI40FFC8v3BeZOwwgh-54">
          <mxGeometry x="-0.5289" y="-3" relative="1" as="geometry">
            <mxPoint x="20" y="-17" as="offset" />
          </mxGeometry>
        </mxCell>
        <mxCell id="jdnI40FFC8v3BeZOwwgh-58" value="&lt;div&gt;Número de&lt;/div&gt;&lt;div&gt;Horas&lt;/div&gt;" style="ellipse;whiteSpace=wrap;html=1;align=center;" vertex="1" parent="1">
          <mxGeometry x="-165" y="570" width="100" height="40" as="geometry" />
        </mxCell>
        <mxCell id="jdnI40FFC8v3BeZOwwgh-59" value="" style="endArrow=none;html=1;rounded=0;exitX=0.5;exitY=0;exitDx=0;exitDy=0;entryX=0;entryY=1;entryDx=0;entryDy=0;" edge="1" parent="1" source="jdnI40FFC8v3BeZOwwgh-58" target="jdnI40FFC8v3BeZOwwgh-51">
          <mxGeometry relative="1" as="geometry">
            <mxPoint x="-400" y="580" as="sourcePoint" />
            <mxPoint x="-240" y="580" as="targetPoint" />
          </mxGeometry>
        </mxCell>
        <mxCell id="jdnI40FFC8v3BeZOwwgh-60" value="Entity" style="shape=ext;margin=3;double=1;whiteSpace=wrap;html=1;align=center;" vertex="1" parent="1">
          <mxGeometry x="-415" y="572.5" width="100" height="40" as="geometry" />
        </mxCell>
        <mxCell id="jdnI40FFC8v3BeZOwwgh-61" value="&lt;u&gt;ID&lt;/u&gt;" style="ellipse;whiteSpace=wrap;html=1;align=center;" vertex="1" parent="1">
          <mxGeometry x="-50" y="660" width="100" height="40" as="geometry" />
        </mxCell>
        <mxCell id="jdnI40FFC8v3BeZOwwgh-62" value="" style="endArrow=none;html=1;rounded=0;entryX=0.5;entryY=0;entryDx=0;entryDy=0;exitX=0.25;exitY=1;exitDx=0;exitDy=0;" edge="1" parent="1" source="jdnI40FFC8v3BeZOwwgh-45" target="jdnI40FFC8v3BeZOwwgh-61">
          <mxGeometry relative="1" as="geometry">
            <mxPoint x="-260" y="730" as="sourcePoint" />
            <mxPoint x="-100" y="730" as="targetPoint" />
          </mxGeometry>
        </mxCell>
        <mxCell id="jdnI40FFC8v3BeZOwwgh-63" value="Nome" style="ellipse;whiteSpace=wrap;html=1;align=center;" vertex="1" parent="1">
          <mxGeometry x="70" y="660" width="100" height="40" as="geometry" />
        </mxCell>
        <mxCell id="jdnI40FFC8v3BeZOwwgh-64" value="" style="endArrow=none;html=1;rounded=0;exitX=0.5;exitY=0;exitDx=0;exitDy=0;entryX=0.75;entryY=1;entryDx=0;entryDy=0;" edge="1" parent="1" source="jdnI40FFC8v3BeZOwwgh-63" target="jdnI40FFC8v3BeZOwwgh-45">
          <mxGeometry relative="1" as="geometry">
            <mxPoint x="-30" y="720" as="sourcePoint" />
            <mxPoint x="130" y="720" as="targetPoint" />
          </mxGeometry>
        </mxCell>
        <mxCell id="jdnI40FFC8v3BeZOwwgh-65" value="Nome" style="ellipse;whiteSpace=wrap;html=1;align=center;" vertex="1" parent="1">
          <mxGeometry x="-530" y="502.5" width="100" height="40" as="geometry" />
        </mxCell>
        <mxCell id="jdnI40FFC8v3BeZOwwgh-66" value="Data de Nascimento" style="ellipse;whiteSpace=wrap;html=1;align=center;" vertex="1" parent="1">
          <mxGeometry x="-580" y="572.5" width="100" height="40" as="geometry" />
        </mxCell>
        <mxCell id="jdnI40FFC8v3BeZOwwgh-67" value="Gênero" style="ellipse;whiteSpace=wrap;html=1;align=center;" vertex="1" parent="1">
          <mxGeometry x="-515" y="632.5" width="100" height="40" as="geometry" />
        </mxCell>
        <mxCell id="jdnI40FFC8v3BeZOwwgh-68" value="Código" style="ellipse;whiteSpace=wrap;html=1;align=center;" vertex="1" parent="1">
          <mxGeometry x="-395" y="657.5" width="100" height="40" as="geometry" />
        </mxCell>
        <mxCell id="jdnI40FFC8v3BeZOwwgh-72" value="" style="endArrow=none;html=1;rounded=0;exitX=0.5;exitY=0;exitDx=0;exitDy=0;entryX=0.5;entryY=1;entryDx=0;entryDy=0;" edge="1" parent="1" source="jdnI40FFC8v3BeZOwwgh-68" target="jdnI40FFC8v3BeZOwwgh-60">
          <mxGeometry relative="1" as="geometry">
            <mxPoint x="-465" y="757.5" as="sourcePoint" />
            <mxPoint x="-305" y="757.5" as="targetPoint" />
          </mxGeometry>
        </mxCell>
        <mxCell id="jdnI40FFC8v3BeZOwwgh-73" value="" style="endArrow=none;html=1;rounded=0;exitX=0.5;exitY=0;exitDx=0;exitDy=0;entryX=0;entryY=0.75;entryDx=0;entryDy=0;" edge="1" parent="1" source="jdnI40FFC8v3BeZOwwgh-67" target="jdnI40FFC8v3BeZOwwgh-60">
          <mxGeometry relative="1" as="geometry">
            <mxPoint x="-595" y="767.5" as="sourcePoint" />
            <mxPoint x="-435" y="767.5" as="targetPoint" />
          </mxGeometry>
        </mxCell>
        <mxCell id="jdnI40FFC8v3BeZOwwgh-74" value="" style="endArrow=none;html=1;rounded=0;exitX=1;exitY=0.5;exitDx=0;exitDy=0;entryX=0;entryY=0.5;entryDx=0;entryDy=0;" edge="1" parent="1" source="jdnI40FFC8v3BeZOwwgh-66" target="jdnI40FFC8v3BeZOwwgh-60">
          <mxGeometry relative="1" as="geometry">
            <mxPoint x="-585" y="787.5" as="sourcePoint" />
            <mxPoint x="-425" y="787.5" as="targetPoint" />
          </mxGeometry>
        </mxCell>
        <mxCell id="jdnI40FFC8v3BeZOwwgh-76" value="" style="endArrow=none;html=1;rounded=0;exitX=1;exitY=1;exitDx=0;exitDy=0;entryX=0.25;entryY=0;entryDx=0;entryDy=0;" edge="1" parent="1" source="jdnI40FFC8v3BeZOwwgh-65" target="jdnI40FFC8v3BeZOwwgh-60">
          <mxGeometry relative="1" as="geometry">
            <mxPoint x="-585" y="767.5" as="sourcePoint" />
            <mxPoint x="-425" y="767.5" as="targetPoint" />
          </mxGeometry>
        </mxCell>
        <mxCell id="jdnI40FFC8v3BeZOwwgh-77" value="Dependente" style="shape=rhombus;double=1;perimeter=rhombusPerimeter;whiteSpace=wrap;html=1;align=center;" vertex="1" parent="1">
          <mxGeometry x="-305" y="490" width="120" height="60" as="geometry" />
        </mxCell>
        <mxCell id="jdnI40FFC8v3BeZOwwgh-78" value="" style="endArrow=none;html=1;rounded=0;exitX=1;exitY=0.5;exitDx=0;exitDy=0;entryX=0;entryY=1;entryDx=0;entryDy=0;" edge="1" parent="1" source="jdnI40FFC8v3BeZOwwgh-60" target="jdnI40FFC8v3BeZOwwgh-77">
          <mxGeometry relative="1" as="geometry">
            <mxPoint x="-230" y="700" as="sourcePoint" />
            <mxPoint x="-70" y="700" as="targetPoint" />
          </mxGeometry>
        </mxCell>
        <mxCell id="jdnI40FFC8v3BeZOwwgh-79" value="" style="endArrow=none;html=1;rounded=0;exitX=1;exitY=0;exitDx=0;exitDy=0;entryX=0.25;entryY=1;entryDx=0;entryDy=0;" edge="1" parent="1" source="jdnI40FFC8v3BeZOwwgh-77" target="jdnI40FFC8v3BeZOwwgh-15">
          <mxGeometry relative="1" as="geometry">
            <mxPoint x="-450" y="450" as="sourcePoint" />
            <mxPoint x="-290" y="450" as="targetPoint" />
          </mxGeometry>
        </mxCell>
      </root>
    </mxGraphModel>
  </diagram>
</mxfile>
